<?xml version="1.0" encoding="utf-8"?>
<!-- Generator: Adobe Illustrator 27.7.0, SVG Export Plug-In . SVG Version: 6.00 Build 0)  -->
<svg version="1.1" id="Layer_1" xmlns="http://www.w3.org/2000/svg" xmlns:xlink="http://www.w3.org/1999/xlink" x="0px" y="0px"
	 viewBox="0 0 667.5 415" style="enable-background:new 0 0 667.5 415;" xml:space="preserve">
<style type="text/css">
	.st0{fill:#F2EC91;}
	.st1{font-family:'ArialMT';}
	.st2{font-size:43px;}
	.st3{fill:#F29E6D;}
	.st4{fill:#F27D72;}
	.st5{fill:#26FFE6;}
	.st6{fill:#0075F2;}
</style>
<g transform="translate(550,300)">
	<text transform="matrix(1 0 0 1 -122.307 46.8866)" class="st0 st1 st2">html</text>
	<text transform="matrix(1 0 0 1 -144.94 -30.1134)" class="st0 st1 st2">css</text>
	<text transform="matrix(1 0 0 1 -355.4981 -45.1134)" class="st0 st1 st2">javascript</text>
	<text transform="matrix(1 0 0 1 14.5125 60.8866)" class="st0 st1 st2">react</text>
	<text transform="matrix(1 0 0 1 -51.519 5.8866)" class="st3 st1 st2">node</text>
	<text transform="matrix(1 0 0 1 -41.2167 -109.1134)" class="st3 st1 st2">js</text>
	<text transform="matrix(1 0 0 1 -241.9715 -98.1134)" class="st3 st1 st2">express</text>
	<text transform="matrix(1 0 0 1 -57.5143 -188.1134)" class="st3 st1 st2">full-stack</text>
	<text transform="matrix(1 0 0 1 -488.3434 -215.1134)" class="st4 st1 st2">mongodb</text>
	<text transform="matrix(1 0 0 1 -74.9239 -61.1134)" class="st4 st1 st2">less</text>
	<text transform="matrix(1 0 0 1 -255.2691 -221.1134)" class="st4 st1 st2">github</text>
	<text transform="matrix(1 0 0 1 -512.2216 -70.1134)" class="st4 st1 st2">docker</text>
	<text transform="matrix(1 0 0 1 -538.8651 -170.1134)" class="st5 st1 st2">wordpress</text>
	<text transform="matrix(1 0 0 1 -467.5619 -115.1134)" class="st5 st1 st2">php</text>
	<text transform="matrix(1 0 0 1 -534.3973 -128.1134)" class="st5 st1 st2">es</text>
	<text transform="matrix(1 0 0 1 -545.3329 28.8866)" class="st5 st1 st2">bootstrap</text>
	<text transform="matrix(1 0 0 1 -342.1578 -135.1134)" class="st6 st1 st2">e-commerce</text>
	<text transform="matrix(1 0 0 1 -535.4127 -260.1133)" class="st6 st1 st2">graphql</text>
	<text transform="matrix(1 0 0 1 33.8688 -30.1134)" class="st6 st1 st2">apis</text>
</g>
</svg>
